<?xml version="1.0" encoding="UTF-8"?>
<svg width="78px" height="23px" viewBox="0 0 78 23" version="1.1" xmlns="http://www.w3.org/2000/svg" xmlns:xlink="http://www.w3.org/1999/xlink">
    <!-- Generator: Sketch 51.3 (57544) - http://www.bohemiancoding.com/sketch -->
    <title>лого AT готовый 2цв</title>
    <desc>Created with Sketch.</desc>
    <defs></defs>
    <g id="Page-1" stroke="none" stroke-width="1" fill="none" fill-rule="evenodd">
        <g id="Slide-0-Copy-2" transform="translate(-237.000000, -183.000000)" fill-rule="nonzero">
            <g id="лого-AT-готовый-2цв" transform="translate(237.000000, 183.000000)">
                <path d="M5.38360753,0.0270806452 L0.185112903,5.22557527 L0.185112903,22.9640161 L32.7878602,22.9640161 L32.7878602,1.18462366 L77.2673871,1.18462366 L77.528672,0.0270806452 L5.38360753,0.0270806452 Z M3.65576344,22.0433978 C3.11217204,21.823414 3.059,21.359457 3.059,20.8136398 L3.059,18.5117849 L2.35428495,18.5117849 L2.35428495,17.8526989 L3.059,17.8526989 L3.059,16.6268978 L3.86412366,16.6268978 L3.86412366,17.8526989 L4.83989247,17.8526989 L4.83989247,18.5117849 L3.86412366,18.5117849 L3.86412366,20.665871 C3.86412366,21.0752957 3.8755,21.2911989 4.06877419,21.4029839 C4.22408602,21.4937473 4.44765591,21.4901613 4.64847312,21.3423925 L4.93263441,21.876586 C4.61817742,22.1397258 4.0878172,22.2194839 3.65576344,22.0433978 Z M6.69460753,14.1411667 L5.26044624,14.1411667 L8.93401613,2.66033333 L12.6471559,14.1411667 L11.1808441,14.1411667 L10.4533763,11.7027957 L7.42022043,11.7027957 L6.69460753,14.1411667 Z M14.7083763,20.0406667 L11.2035968,20.0406667 C11.224371,20.8325591 11.6032527,21.1279731 12.0863763,21.309871 C12.7552312,21.5620054 13.8558925,21.4465108 14.4886398,21.2041452 L14.5038495,21.8934032 C13.5262258,22.1209301 11.7491667,22.2440914 10.9326667,21.5373978 C10.5557634,21.213543 10.2865645,20.6906022 10.2865645,19.8436828 C10.2865645,18.9380269 10.7034086,17.5342849 12.5656667,17.5342849 C14.1097581,17.5342849 14.5815054,18.384914 14.6686828,19.0516667 C14.7122097,19.4420484 14.7083763,20.0406667 14.7083763,20.0406667 Z M21.1952419,22.1341613 L20.3958065,22.1341613 L20.3958065,16.0469516 L21.1952419,16.0469516 L21.1952419,22.1341613 Z M21.3600753,14.1411667 L16.3358118,14.1411667 L16.3358118,2.66033333 L17.966957,2.66033333 L17.966957,12.5535484 L21.3600753,12.5535484 L21.3600753,14.1411667 Z M25.1377634,2.66045699 L26.7708871,2.66045699 L26.7708871,12.553672 L30.1640054,12.553672 L30.1640054,14.1412903 L25.1378871,14.1412903 L25.1378871,2.66045699 L25.1377634,2.66045699 Z M30.6450269,20.0446237 L27.1421022,20.0446237 C27.1611452,20.8362688 27.5399032,21.1319301 28.0230269,21.313828 C28.6918817,21.5639839 29.792543,21.4503441 30.4252903,21.2078548 L30.4405,21.8973602 C29.4608978,22.1266183 27.6858172,22.2480484 26.8693172,21.5413548 C26.4942688,21.2172527 26.2232151,20.6943118 26.2232151,19.8456613 C26.2232151,18.9400054 26.641914,17.5362634 28.5004624,17.5362634 C30.0464086,17.5362634 30.5200108,18.388871 30.6052097,19.0556237 C30.6487366,19.4458817 30.6450269,20.0446237 30.6450269,20.0446237 Z" id="Shape" fill="#3764DC"></path>
                <polygon id="Shape" fill="#3764DC" points="10.0800591 10.4563441 7.79180645 10.4563441 8.93364516 6.62152688"></polygon>
                <path d="M29.7873495,19.4301774 L27.1416075,19.4301774 C27.1738817,18.8293333 27.5143065,18.127957 28.5652581,18.127957 C29.2776398,18.127957 29.7873495,18.5375054 29.7873495,19.4301774 Z" id="Shape" fill="#3764DC"></path>
                <path d="M13.849586,19.4263441 L11.2037204,19.4263441 C11.2369839,18.8266129 11.5764194,18.1248656 12.6274946,18.1248656 C13.3398763,18.1247419 13.849586,18.534414 13.849586,19.4263441 Z" id="Shape" fill="#3764DC"></path>
                <path d="M43.0958172,2.65860215 L39.4337473,14.1412903 L40.8509677,14.1412903 L41.5784355,11.7029194 L44.6171559,11.7029194 L45.3464785,14.1412903 L46.7900376,14.1412903 L43.0958172,2.65860215 Z M41.9515054,10.4563441 L43.0958172,6.62189785 L44.2439624,10.4563441 L41.9515054,10.4563441 Z" id="Shape" fill="#3764DC"></path>
                <rect id="Rectangle-path" fill="#3764DC" x="34.3679355" y="2.65860215" width="1.58378495" height="11.4826882"></rect>
                <polygon id="Shape" fill="#3764DC" points="56.518543 2.65860215 56.518543 14.1411667 54.9404462 11.803328 51.6949731 6.98754839 51.6949731 14.1411667 50.1168763 14.1411667 50.1168763 2.65860215 51.6949731 4.91297312 54.9404462 9.5565 54.9404462 2.65860215"></polygon>
                <polygon id="Shape" fill="#3764DC" points="77.5001075 12.646414 77.5001075 14.1411667 72.1406129 14.1411667 72.1406129 2.65860215 77.3619839 2.65860215 77.3619839 4.09647312 73.711043 4.09647312 73.711043 7.56353763 77.1990054 7.56353763 77.1990054 9.06768817 73.711043 9.06768817 73.711043 12.646414"></polygon>
                <path d="M68.4047204,13.7300108 C67.5654677,13.9631022 66.8058495,14.0899731 66.1274731,14.1411667 C65.6045323,14.1808602 65.1309301,14.1771505 64.7028333,14.1411667 C63.7198925,14.0615323 62.9827796,13.826586 62.4748011,13.616371 C61.3269032,13.1407903 59.2240108,11.7938065 59.2240108,8.70191398 C59.2240108,5.31646237 61.0501613,4.03946774 62.130172,3.43145161 C63.6741398,2.56177957 66.7680108,2.38940323 68.2455753,3.13591398 L68.2455753,4.5927043 C67.2773495,3.91259677 65.055129,3.65106452 63.3162796,4.49612903 C61.5162204,5.37148925 60.8267151,7.00251075 60.8267151,8.58258602 C60.8267151,9.65122043 61.1032097,10.6285968 61.8932473,11.5095215 C63.3370538,13.1142043 66.3927151,13.3225645 68.3537742,12.0684462 L68.4047204,13.7300108 Z" id="Shape" fill="#3764DC"></path>
                <path d="M42.7738172,21.2265269 L42.7945914,21.9370538 C41.5251398,22.2590538 40.6499032,22.1149946 40.3944301,22.0563817 C39.3104624,21.8064731 38.7402849,21.1263656 38.7402849,20.0122258 C38.7402849,18.7903817 39.2838763,18.1708656 40.1688817,17.8164677 C40.8301935,17.5550591 41.7961935,17.556914 42.7945914,17.8222796 L42.7832151,18.5648333 C42.1750753,18.3149247 41.3850376,18.1860753 40.6423602,18.4170645 C40.2067204,18.5496237 39.6571935,18.9515054 39.6571935,19.9536129 C39.6571935,20.9027957 40.1745699,21.2550914 40.5836237,21.3954409 C41.0175323,21.5467957 41.9705484,21.5847581 42.7738172,21.2265269 Z" id="Shape" fill="#3764DC"></path>
                <path d="M54.7377742,17.5968548 C53.3301989,17.5968548 52.2238495,18.2277473 52.2238495,19.8741022 C52.2238495,21.5052473 53.2411667,22.153328 54.694371,22.153328 C56.147328,22.153328 57.1648925,21.5072258 57.1667473,19.8780591 L57.1667473,19.8742258 C57.1667473,18.3411398 56.2439032,17.5968548 54.7377742,17.5968548 Z M54.6733495,21.5221882 C53.705371,21.5108118 53.1238172,20.7587366 53.1238172,19.875957 C53.1238172,18.9209624 53.7339355,18.2276237 54.694371,18.2276237 C55.5657742,18.2276237 56.2098978,18.8263656 56.2098978,19.8627258 C56.2097742,20.7473602 55.7077312,21.5221882 54.6733495,21.5221882 Z" id="Shape" fill="#3764DC"></path>
                <path d="M73.1921828,19.3833118 L73.1921828,22.1491237 L72.2751505,22.1491237 L72.2751505,19.4970753 C72.2751505,19.0384355 72.1671989,18.7051828 71.8907043,18.553457 C71.250414,18.2030161 70.2857742,18.7353548 70.2857742,19.6656183 L70.2857742,22.1491237 L69.4029946,22.1491237 L69.4029946,19.4970753 C69.4029946,19.0384355 69.2762473,18.691828 69.0165699,18.553457 C68.3437581,18.1936183 67.4042204,18.745 67.4042204,19.6656183 L67.4042204,22.1491237 L66.4760591,22.1491237 L66.4760591,17.8561613 L67.4042204,17.8561613 L67.4042204,18.6330914 C67.8608817,17.9168763 68.9671075,17.5872097 69.6700914,17.9757366 C69.8652204,18.0836882 70.1038763,18.2901935 70.1948871,18.6824301 C70.6720753,17.9453172 71.8069892,17.5854785 72.5460806,17.9926774 C72.8908333,18.1822419 73.1921828,18.4626935 73.1921828,19.3833118 Z" id="Shape" fill="#3764DC"></path>
                <path d="M8.93364516,2.65897312 L5.25883871,14.141414 L6.69485484,14.141414 L7.42133333,11.7027957 L10.4518925,11.7027957 L11.1810914,14.141414 L12.6474032,14.141414 L8.93364516,2.65897312 Z M7.79180645,10.4563441 L8.93352151,6.62165054 L10.0799355,10.4563441 L7.79180645,10.4563441 Z" id="Shape" fill="#FFFFFF"></path>
                <polygon id="Shape" fill="#FFFFFF" points="21.3610645 12.5524355 21.3610645 14.141414 16.3363065 14.141414 16.3363065 2.65897312 17.9672043 2.65897312 17.9672043 12.5524355"></polygon>
                <polygon id="Shape" fill="#FFFFFF" points="30.1638817 12.5524355 30.1638817 14.141414 25.1392473 14.141414 25.1392473 2.65897312 26.7710108 2.65897312 26.7710108 12.5524355"></polygon>
                <path d="M4.93337634,21.8772043 C4.61830108,22.1399731 4.08756989,22.2198548 3.65452688,22.0429032 C3.1122957,21.822672 3.05937097,21.3597043 3.05937097,20.8131452 L3.05937097,18.511043 L2.35366667,18.511043 L2.35366667,17.851586 L3.05937097,17.851586 L3.05937097,16.6273925 L3.86424731,16.6273925 L3.86424731,17.851586 L4.83952151,17.851586 L4.83952151,18.511043 L3.86424731,18.511043 L3.86424731,20.665871 C3.86424731,21.075543 3.87574731,21.2907043 4.06865054,21.4024892 C4.22458065,21.4932527 4.44691398,21.4904086 4.64760753,21.3418978 L4.93337634,21.8772043 Z" id="Shape" fill="#FFFFFF"></path>
                <rect id="Rectangle-path" fill="#FFFFFF" x="20.3972903" y="16.0474462" width="1" height="6.08696237"></rect>
            </g>
        </g>
    </g>
</svg>