<?xml version="1.0" encoding="UTF-8"?>
<svg width="69px" height="24px" viewBox="0 0 69 24" version="1.1" xmlns="http://www.w3.org/2000/svg" xmlns:xlink="http://www.w3.org/1999/xlink">
    <!-- Generator: Sketch 51.3 (57544) - http://www.bohemiancoding.com/sketch -->
    <title>Лого</title>
    <desc>Created with Sketch.</desc>
    <defs>
        <linearGradient x1="49.9999709%" y1="100.000125%" x2="49.9999709%" y2="0.000208107883%" id="linearGradient-1">
            <stop stop-color="#FFFFFF" stop-opacity="0" offset="0%"></stop>
            <stop stop-color="#FFFFFF" offset="100%"></stop>
        </linearGradient>
    </defs>
    <g id="Page-1" stroke="none" stroke-width="1" fill="none" fill-rule="evenodd">
        <g id="Second_page_final" transform="translate(-1035.000000, -772.000000)" fill-rule="nonzero">
            <g id="Лого" transform="translate(1035.600000, 772.000000)">
                <polygon id="Shape" fill="url(#linearGradient-1)" points="68.1506777 0.0888595041 68.1506777 23.9162975 0.0699173554 23.9162975 0.0699173554 6.18019835 3.87758678 2.37401653 6.16264463 0.0888595041"></polygon>
                <path d="M8.08631405,3.39361983 L3.91705785,7.56287603 L3.91705785,21.7893223 L30.0648595,21.7893223 L30.0648595,4.32198347 L65.7379835,4.32198347 L65.9475372,3.39361983 L8.08631405,3.39361983 Z M6.70056198,21.0509752 C6.26459504,20.8745455 6.22195041,20.5024463 6.22195041,20.0646942 L6.22195041,18.2185785 L5.65676033,18.2185785 L5.65676033,17.6899835 L6.22195041,17.6899835 L6.22195041,16.706876 L6.86766942,16.706876 L6.86766942,17.6899835 L7.65024793,17.6899835 L7.65024793,18.2185785 L6.86766942,18.2185785 L6.86766942,19.9461818 C6.86766942,20.2745455 6.87679339,20.4477025 7.03180165,20.5373554 C7.15636364,20.6101488 7.33566942,20.6072727 7.49672727,20.4887603 L7.7246281,20.9171901 C7.47242975,21.1282314 7.04707438,21.1921983 6.70056198,21.0509752 Z M9.13775207,14.7132893 L7.98753719,14.7132893 L10.9337851,5.50552066 L13.9117686,14.7132893 L12.7357686,14.7132893 L12.1523306,12.757686 L9.71970248,12.757686 L9.13775207,14.7132893 Z M15.5648926,19.4447603 L12.7540165,19.4447603 C12.7706777,20.0798678 13.0745455,20.3167934 13.4620165,20.4626777 C13.9984463,20.6648926 14.8811901,20.5722645 15.3886612,20.3778843 L15.4008595,20.9306777 C14.6167934,21.113157 13.1915702,21.2119339 12.5367273,20.645157 C12.2344463,20.3854215 12.0185455,19.9660165 12.0185455,19.2867769 C12.0185455,18.5604298 12.3528595,17.4346116 13.8464132,17.4346116 C15.0847934,17.4346116 15.4631405,18.1168264 15.5330579,18.6515702 C15.5679669,18.9646612 15.5648926,19.4447603 15.5648926,19.4447603 Z M20.767438,21.1237686 L20.126281,21.1237686 L20.126281,16.2417521 L20.767438,16.2417521 L20.767438,21.1237686 Z M20.8996364,14.7132893 L16.8701157,14.7132893 L16.8701157,5.50552066 L18.178314,5.50552066 L18.178314,13.44 L20.8996364,13.44 L20.8996364,14.7132893 Z M23.9293884,5.50561983 L25.2391736,5.50561983 L25.2391736,13.4400992 L27.9604959,13.4400992 L27.9604959,14.7133884 L23.9294876,14.7133884 L23.9294876,5.50561983 L23.9293884,5.50561983 Z M28.346281,19.4479339 L25.5368926,19.4479339 C25.5521653,20.082843 25.8559339,20.3199669 26.243405,20.4658512 C26.7798347,20.6664793 27.6625785,20.5753388 28.1700496,20.3808595 L28.1822479,20.9338512 C27.396595,21.117719 25.9729587,21.2151074 25.3181157,20.6483306 C25.0173223,20.3883967 24.7999339,19.9689917 24.7999339,19.2883636 C24.7999339,18.5620165 25.1357355,17.4361983 26.626314,17.4361983 C27.8661818,17.4361983 28.2460165,18.12 28.3143471,18.6547438 C28.3492562,18.9677355 28.346281,19.4479339 28.346281,19.4479339 Z" id="Shape" fill="#3764DC"></path>
                <polygon id="Shape" fill="#407EC1" points="11.8529256 11.7580165 10.017719 11.7580165 10.9334876 8.68244628"></polygon>
                <path d="M27.6584132,18.9551405 L25.5364959,18.9551405 C25.5623802,18.4732562 25.835405,17.9107438 26.678281,17.9107438 C27.2496198,17.9107438 27.6584132,18.2392066 27.6584132,18.9551405 Z" id="Shape" fill="#3764DC"></path>
                <path d="M14.8761322,18.9520661 L12.7541157,18.9520661 C12.7807934,18.4710744 13.0530248,17.9082645 13.896,17.9082645 C14.4673388,17.9081653 14.8761322,18.2367273 14.8761322,18.9520661 Z" id="Shape" fill="#3764DC"></path>
                <path d="M38.3319669,5.50413223 L35.3949421,14.7133884 L36.5315702,14.7133884 L37.1150083,12.7577851 L39.5520992,12.7577851 L40.1370248,14.7133884 L41.2947769,14.7133884 L38.3319669,5.50413223 Z M37.4142149,11.7580165 L38.3319669,8.6827438 L39.2527934,11.7580165 L37.4142149,11.7580165 Z" id="Shape" fill="#3764DC"></path>
                <rect id="Rectangle-path" fill="#3764DC" x="31.3320992" y="5.50413223" width="1.27021488" height="9.2092562"></rect>
                <polygon id="Shape" fill="#3764DC" points="49.097157 5.50413223 49.097157 14.7132893 47.8315041 12.838314 45.228595 8.976 45.228595 14.7132893 43.9629421 14.7132893 43.9629421 5.50413223 45.228595 7.31216529 47.8315041 11.0363306 47.8315041 5.50413223"></polygon>
                <polygon id="Shape" fill="#3764DC" points="65.9246281 13.5144793 65.9246281 14.7132893 61.6262479 14.7132893 61.6262479 5.50413223 65.8138512 5.50413223 65.8138512 6.65732231 62.8857521 6.65732231 62.8857521 9.43795041 65.6831405 9.43795041 65.6831405 10.6442975 62.8857521 10.6442975 62.8857521 13.5144793"></polygon>
                <path d="M58.6300165,14.3835372 C57.9569256,14.5704793 57.3477025,14.6722314 56.8036364,14.7132893 C56.3842314,14.745124 56.0043967,14.7421488 55.6610579,14.7132893 C54.8727273,14.6494215 54.2815537,14.4609917 53.8741488,14.2923967 C52.9535207,13.9109752 51.2669752,12.8306777 51.2669752,10.3509421 C51.2669752,7.6357686 52.7315702,6.61160331 53.5977521,6.12396694 C54.8360331,5.42647934 57.3173554,5.2882314 58.5023802,5.88694215 L58.5023802,7.05530579 C57.7258512,6.50985124 55.9436033,6.30009917 54.5490248,6.97785124 C53.1053554,7.67990083 52.5523636,8.988 52.5523636,10.2552397 C52.5523636,11.1122975 52.7741157,11.8961653 53.4077355,12.6026777 C54.565686,13.8896529 57.0163636,14.0567603 58.589157,13.0509421 L58.6300165,14.3835372 Z" id="Shape" fill="#3764DC"></path>
                <path d="M38.073719,20.3958347 L38.0903802,20.965686 C37.0722645,21.2239339 36.370314,21.1083967 36.1654215,21.0613884 C35.2960661,20.8609587 34.8387769,20.3155041 34.8387769,19.4219504 C34.8387769,18.4420165 35.2747438,17.945157 35.9845289,17.6609256 C36.5149091,17.4512727 37.2896529,17.4527603 38.0903802,17.6655868 L38.0812562,18.261124 C37.5935207,18.0606942 36.9599008,17.9573554 36.3642645,18.1426116 C36.014876,18.2489256 35.5741488,18.5712397 35.5741488,19.3749421 C35.5741488,20.1361983 35.9890909,20.4187438 36.317157,20.5313058 C36.665157,20.6526942 37.4294876,20.6831405 38.073719,20.3958347 Z" id="Shape" fill="#3764DC"></path>
                <path d="M47.6689587,17.4847934 C46.5400661,17.4847934 45.6527603,17.9907769 45.6527603,19.3111736 C45.6527603,20.6193719 46.4686612,21.1391405 47.6341488,21.1391405 C48.799438,21.1391405 49.6155372,20.6209587 49.6170248,19.3143471 L49.6170248,19.3112727 C49.6170248,18.081719 48.8768926,17.4847934 47.6689587,17.4847934 Z M47.6172893,20.6329587 C46.8409587,20.6238347 46.3745455,20.0206612 46.3745455,19.3126612 C46.3745455,18.5467438 46.8638678,17.9906777 47.6341488,17.9906777 C48.3330248,17.9906777 48.8496198,18.470876 48.8496198,19.3020496 C48.8495207,20.0115372 48.446876,20.6329587 47.6172893,20.6329587 Z" id="Shape" fill="#3764DC"></path>
                <path d="M62.4696198,18.9175537 L62.4696198,21.1357686 L61.7341488,21.1357686 L61.7341488,19.0087934 C61.7341488,18.6409587 61.6475702,18.373686 61.4258182,18.252 C60.9122975,17.9709421 60.1386446,18.3978843 60.1386446,19.1439669 L60.1386446,21.1357686 L59.4306446,21.1357686 L59.4306446,19.0087934 C59.4306446,18.6409587 59.3289917,18.3629752 59.1207273,18.252 C58.581124,17.963405 57.8276033,18.4056198 57.8276033,19.1439669 L57.8276033,21.1357686 L57.0832066,21.1357686 L57.0832066,17.6927603 L57.8276033,17.6927603 L57.8276033,18.3158678 C58.1938512,17.7414545 59.0810579,17.4770579 59.6448595,17.7886612 C59.8013554,17.8752397 59.9927603,18.0408595 60.0657521,18.355438 C60.4484628,17.7642645 61.3586777,17.4756694 61.951438,17.8022479 C62.2279339,17.954281 62.4696198,18.1792066 62.4696198,18.9175537 Z" id="Shape" fill="#3764DC"></path>
                <path d="M10.9334876,5.50442975 L7.98624793,14.7134876 L9.13795041,14.7134876 L9.72059504,12.757686 L12.1511405,12.757686 L12.7359669,14.7134876 L13.9119669,14.7134876 L10.9334876,5.50442975 Z M10.017719,11.7580165 L10.9333884,8.68254545 L11.8528264,11.7580165 L10.017719,11.7580165 Z" id="Shape" fill="#FFFFFF"></path>
                <polygon id="Shape" fill="#FFFFFF" points="20.9004298 13.4391074 20.9004298 14.7134876 16.8705124 14.7134876 16.8705124 5.50442975 18.1785124 5.50442975 18.1785124 13.4391074"></polygon>
                <polygon id="Shape" fill="#FFFFFF" points="27.9603967 13.4391074 27.9603967 14.7134876 23.9305785 14.7134876 23.9305785 5.50442975 25.2392727 5.50442975 25.2392727 13.4391074"></polygon>
                <path d="M7.72522314,20.917686 C7.47252893,21.1284298 7.04687603,21.1924959 6.69957025,21.0505785 C6.26469421,20.8739504 6.22224793,20.5026446 6.22224793,20.0642975 L6.22224793,18.2179835 L5.65626446,18.2179835 L5.65626446,17.6890909 L6.22224793,17.6890909 L6.22224793,16.7072727 L6.8677686,16.7072727 L6.8677686,17.6890909 L7.64995041,17.6890909 L7.64995041,18.2179835 L6.8677686,18.2179835 L6.8677686,19.9461818 C6.8677686,20.2747438 6.87699174,20.4473058 7.03170248,20.5369587 C7.15676033,20.6097521 7.33507438,20.6074711 7.49603306,20.4883636 L7.72522314,20.917686 Z" id="Shape" fill="#FFFFFF"></path>
                <rect id="Rectangle-path" fill="#FFFFFF" x="20.1274711" y="16.2421488" width="1" height="4.88181818"></rect>
            </g>
        </g>
    </g>
</svg>