<?xml version="1.0" encoding="UTF-8"?>
<svg width="199px" height="260px" viewBox="0 0 199 260" version="1.1" xmlns="http://www.w3.org/2000/svg" xmlns:xlink="http://www.w3.org/1999/xlink">
    <!-- Generator: Sketch 51.3 (57544) - http://www.bohemiancoding.com/sketch -->
    <title>sms copy</title>
    <desc>Created with Sketch.</desc>
    <defs>
        <linearGradient x1="50%" y1="0%" x2="50%" y2="100%" id="linearGradient-1">
            <stop stop-color="#19AFCC" offset="0%"></stop>
            <stop stop-color="#3867F5" offset="100%"></stop>
        </linearGradient>
        <path d="M103,30.3698309 C103,28.6859469 102.5777,26.9446577 101.043,26.2175259 L55.0947,0.815752132 C52.8339916,-0.271917377 50.1454084,-0.271917377 47.8847,0.815752132 L1.9879,26.2175259 C0.4532,26.9446577 0,28.6859469 0,30.3698309 C0,30.5516139 0,30.7333968 0,30.9151797 L0,81.3934315 C6.32968411e-15,84.4898538 2.70231971,87 6.0358,87 L96.9642,87 C100.29768,87 103,84.4898538 103,81.3934315 L103,30.9151797 C103,30.7333968 103,30.5516139 103,30.3698309 Z" id="path-2"></path>
        <filter x="-3.9%" y="-2.3%" width="107.8%" height="109.2%" filterUnits="objectBoundingBox" id="filter-3">
            <feOffset dx="0" dy="2" in="SourceAlpha" result="shadowOffsetOuter1"></feOffset>
            <feGaussianBlur stdDeviation="1" in="shadowOffsetOuter1" result="shadowBlurOuter1"></feGaussianBlur>
            <feColorMatrix values="0 0 0 0 0   0 0 0 0 0   0 0 0 0 0  0 0 0 0.5 0" type="matrix" in="shadowBlurOuter1"></feColorMatrix>
        </filter>
        <linearGradient x1="50%" y1="223.327592%" x2="50%" y2="-25.4338953%" id="linearGradient-4">
            <stop stop-color="#2D53C2" offset="0%"></stop>
            <stop stop-color="#2C51BF" offset="100%"></stop>
        </linearGradient>
        <linearGradient x1="50%" y1="0%" x2="50%" y2="158.130123%" id="linearGradient-5">
            <stop stop-color="#6AA1F9" offset="0%"></stop>
            <stop stop-color="#597FF1" offset="100%"></stop>
        </linearGradient>
        <linearGradient x1="50%" y1="0%" x2="50%" y2="100%" id="linearGradient-6">
            <stop stop-color="#3460DF" offset="0%"></stop>
            <stop stop-color="#5473CC" offset="100%"></stop>
        </linearGradient>
    </defs>
    <g id="Page-1" stroke="none" stroke-width="1" fill="none" fill-rule="evenodd">
        <g id="Illustrations" transform="translate(-1049.000000, -167.000000)">
            <g id="sms-copy" transform="translate(1049.000000, 167.000000)">
                <rect id="Rectangle-13" fill-opacity="0.35" fill="#D1DADF" x="29" y="186" width="138" height="26" rx="13"></rect>
                <rect id="Rectangle-13" fill-opacity="0.35" fill="#D1DADF" x="71" y="212" width="67" height="17" rx="8.5"></rect>
                <rect id="Rectangle-13" fill-opacity="0.35" fill="#D1DADF" x="76" y="105" width="91" height="14" rx="7"></rect>
                <rect id="Rectangle-13" fill-opacity="0.35" fill="#D1DADF" x="17" y="119" width="182" height="34" rx="17"></rect>
                <rect id="Rectangle-13" fill-opacity="0.35" fill="#D1DADF" x="46" y="85" width="110" height="20" rx="10"></rect>
                <rect id="Rectangle-13" fill-opacity="0.35" fill="#D1DADF" x="0" y="153" width="182" height="26" rx="13"></rect>
                <g id="envelope" transform="translate(49.000000, 110.000000)">
                    <g id="Group" transform="translate(11.000000, 73.000000)" fill="#B3F7F0">
                        <ellipse id="Oval-3" cx="71.9023438" cy="6.10526316" rx="1.54296875" ry="1.52631579"></ellipse>
                        <ellipse id="Oval-3" cx="61.1015625" cy="6.10526316" rx="1.54296875" ry="1.52631579"></ellipse>
                        <ellipse id="Oval-3" cx="50.3007813" cy="6.10526316" rx="1.54296875" ry="1.52631579"></ellipse>
                        <ellipse id="Oval-3" cx="39.5" cy="6.10526316" rx="1.54296875" ry="1.52631579"></ellipse>
                        <ellipse id="Oval-3" cx="28.6992188" cy="6.10526316" rx="1.54296875" ry="1.52631579"></ellipse>
                        <ellipse id="Oval-3" cx="17.8984375" cy="6.10526316" rx="1.54296875" ry="1.52631579"></ellipse>
                        <ellipse id="Oval-3" cx="7.09765625" cy="6.10526316" rx="1.54296875" ry="1.52631579"></ellipse>
                        <ellipse id="Oval-3" cx="77.4570313" cy="1.52631579" rx="1.54296875" ry="1.52631579"></ellipse>
                        <ellipse id="Oval-3" cx="66.65625" cy="1.52631579" rx="1.54296875" ry="1.52631579"></ellipse>
                        <ellipse id="Oval-3" cx="55.8554688" cy="1.52631579" rx="1.54296875" ry="1.52631579"></ellipse>
                        <ellipse id="Oval-3" cx="45.0546875" cy="1.52631579" rx="1.54296875" ry="1.52631579"></ellipse>
                        <ellipse id="Oval-3" cx="34.2539063" cy="1.52631579" rx="1.54296875" ry="1.52631579"></ellipse>
                        <ellipse id="Oval-3" cx="23.453125" cy="1.52631579" rx="1.54296875" ry="1.52631579"></ellipse>
                        <ellipse id="Oval-3" cx="12.6523438" cy="1.52631579" rx="1.54296875" ry="1.52631579"></ellipse>
                        <ellipse id="Oval-3" cx="1.8515625" cy="1.52631579" rx="1.54296875" ry="1.52631579"></ellipse>
                        <ellipse id="Oval-3" cx="71.9023437" cy="15.2631579" rx="1.54296875" ry="1.52631579"></ellipse>
                        <ellipse id="Oval-3" cx="61.1015625" cy="15.2631579" rx="1.54296875" ry="1.52631579"></ellipse>
                        <ellipse id="Oval-3" cx="50.3007812" cy="15.2631579" rx="1.54296875" ry="1.52631579"></ellipse>
                        <ellipse id="Oval-3" cx="39.5" cy="15.2631579" rx="1.54296875" ry="1.52631579"></ellipse>
                        <ellipse id="Oval-3" cx="28.6992187" cy="15.2631579" rx="1.54296875" ry="1.52631579"></ellipse>
                        <ellipse id="Oval-3" cx="17.8984375" cy="15.2631579" rx="1.54296875" ry="1.52631579"></ellipse>
                        <ellipse id="Oval-3" cx="7.09765625" cy="15.2631579" rx="1.54296875" ry="1.52631579"></ellipse>
                        <ellipse id="Oval-3" cx="77.4570313" cy="10.6842105" rx="1.54296875" ry="1.52631579"></ellipse>
                        <ellipse id="Oval-3" cx="66.65625" cy="10.6842105" rx="1.54296875" ry="1.52631579"></ellipse>
                        <ellipse id="Oval-3" cx="55.8554688" cy="10.6842105" rx="1.54296875" ry="1.52631579"></ellipse>
                        <ellipse id="Oval-3" cx="45.0546875" cy="10.6842105" rx="1.54296875" ry="1.52631579"></ellipse>
                        <ellipse id="Oval-3" cx="34.2539063" cy="10.6842105" rx="1.54296875" ry="1.52631579"></ellipse>
                        <ellipse id="Oval-3" cx="23.453125" cy="10.6842105" rx="1.54296875" ry="1.52631579"></ellipse>
                        <ellipse id="Oval-3" cx="12.6523438" cy="10.6842105" rx="1.54296875" ry="1.52631579"></ellipse>
                        <ellipse id="Oval-3" cx="1.8515625" cy="10.6842105" rx="1.54296875" ry="1.52631579"></ellipse>
                        <ellipse id="Oval-3" cx="71.9023437" cy="24.4210526" rx="1.54296875" ry="1.52631579"></ellipse>
                        <ellipse id="Oval-3" cx="61.1015625" cy="24.4210526" rx="1.54296875" ry="1.52631579"></ellipse>
                        <ellipse id="Oval-3" cx="50.3007812" cy="24.4210526" rx="1.54296875" ry="1.52631579"></ellipse>
                        <ellipse id="Oval-3" cx="39.5" cy="24.4210526" rx="1.54296875" ry="1.52631579"></ellipse>
                        <ellipse id="Oval-3" cx="28.6992187" cy="24.4210526" rx="1.54296875" ry="1.52631579"></ellipse>
                        <ellipse id="Oval-3" cx="17.8984375" cy="24.4210526" rx="1.54296875" ry="1.52631579"></ellipse>
                        <ellipse id="Oval-3" cx="7.09765625" cy="24.4210526" rx="1.54296875" ry="1.52631579"></ellipse>
                        <ellipse id="Oval-3" cx="77.4570313" cy="19.8421053" rx="1.54296875" ry="1.52631579"></ellipse>
                        <ellipse id="Oval-3" cx="66.65625" cy="19.8421053" rx="1.54296875" ry="1.52631579"></ellipse>
                        <ellipse id="Oval-3" cx="55.8554688" cy="19.8421053" rx="1.54296875" ry="1.52631579"></ellipse>
                        <ellipse id="Oval-3" cx="45.0546875" cy="19.8421053" rx="1.54296875" ry="1.52631579"></ellipse>
                        <ellipse id="Oval-3" cx="34.2539063" cy="19.8421053" rx="1.54296875" ry="1.52631579"></ellipse>
                        <ellipse id="Oval-3" cx="23.453125" cy="19.8421053" rx="1.54296875" ry="1.52631579"></ellipse>
                        <ellipse id="Oval-3" cx="12.6523438" cy="19.8421053" rx="1.54296875" ry="1.52631579"></ellipse>
                        <ellipse id="Oval-3" cx="1.8515625" cy="19.8421053" rx="1.54296875" ry="1.52631579"></ellipse>
                        <ellipse id="Oval-3" cx="71.9023437" cy="33.5789474" rx="1.54296875" ry="1.52631579"></ellipse>
                        <ellipse id="Oval-3" cx="61.1015625" cy="33.5789474" rx="1.54296875" ry="1.52631579"></ellipse>
                        <ellipse id="Oval-3" cx="50.3007812" cy="33.5789474" rx="1.54296875" ry="1.52631579"></ellipse>
                        <ellipse id="Oval-3" cx="39.5" cy="33.5789474" rx="1.54296875" ry="1.52631579"></ellipse>
                        <ellipse id="Oval-3" cx="28.6992187" cy="33.5789474" rx="1.54296875" ry="1.52631579"></ellipse>
                        <ellipse id="Oval-3" cx="17.8984375" cy="33.5789474" rx="1.54296875" ry="1.52631579"></ellipse>
                        <ellipse id="Oval-3" cx="7.09765625" cy="33.5789474" rx="1.54296875" ry="1.52631579"></ellipse>
                        <ellipse id="Oval-3" cx="77.4570313" cy="29" rx="1.54296875" ry="1.52631579"></ellipse>
                        <ellipse id="Oval-3" cx="66.65625" cy="29" rx="1.54296875" ry="1.52631579"></ellipse>
                        <ellipse id="Oval-3" cx="55.8554688" cy="29" rx="1.54296875" ry="1.52631579"></ellipse>
                        <ellipse id="Oval-3" cx="45.0546875" cy="29" rx="1.54296875" ry="1.52631579"></ellipse>
                        <ellipse id="Oval-3" cx="34.2539063" cy="29" rx="1.54296875" ry="1.52631579"></ellipse>
                        <ellipse id="Oval-3" cx="23.453125" cy="29" rx="1.54296875" ry="1.52631579"></ellipse>
                        <ellipse id="Oval-3" cx="12.6523438" cy="29" rx="1.54296875" ry="1.52631579"></ellipse>
                        <ellipse id="Oval-3" cx="1.8515625" cy="29" rx="1.54296875" ry="1.52631579"></ellipse>
                        <ellipse id="Oval-3" cx="71.9023437" cy="42.7368421" rx="1.54296875" ry="1.52631579"></ellipse>
                        <ellipse id="Oval-3" cx="61.1015625" cy="42.7368421" rx="1.54296875" ry="1.52631579"></ellipse>
                        <ellipse id="Oval-3" cx="50.3007812" cy="42.7368421" rx="1.54296875" ry="1.52631579"></ellipse>
                        <ellipse id="Oval-3" cx="39.5" cy="42.7368421" rx="1.54296875" ry="1.52631579"></ellipse>
                        <ellipse id="Oval-3" cx="28.6992187" cy="42.7368421" rx="1.54296875" ry="1.52631579"></ellipse>
                        <ellipse id="Oval-3" cx="17.8984375" cy="42.7368421" rx="1.54296875" ry="1.52631579"></ellipse>
                        <ellipse id="Oval-3" cx="7.09765625" cy="42.7368421" rx="1.54296875" ry="1.52631579"></ellipse>
                        <ellipse id="Oval-3" cx="77.4570313" cy="38.1578947" rx="1.54296875" ry="1.52631579"></ellipse>
                        <ellipse id="Oval-3" cx="66.65625" cy="38.1578947" rx="1.54296875" ry="1.52631579"></ellipse>
                        <ellipse id="Oval-3" cx="55.8554688" cy="38.1578947" rx="1.54296875" ry="1.52631579"></ellipse>
                        <ellipse id="Oval-3" cx="45.0546875" cy="38.1578947" rx="1.54296875" ry="1.52631579"></ellipse>
                        <ellipse id="Oval-3" cx="34.2539063" cy="38.1578947" rx="1.54296875" ry="1.52631579"></ellipse>
                        <ellipse id="Oval-3" cx="23.453125" cy="38.1578947" rx="1.54296875" ry="1.52631579"></ellipse>
                        <ellipse id="Oval-3" cx="12.6523438" cy="38.1578947" rx="1.54296875" ry="1.52631579"></ellipse>
                        <ellipse id="Oval-3" cx="1.8515625" cy="38.1578947" rx="1.54296875" ry="1.52631579"></ellipse>
                        <ellipse id="Oval-3" cx="71.9023437" cy="51.8947368" rx="1.54296875" ry="1.52631579"></ellipse>
                        <ellipse id="Oval-3" cx="61.1015625" cy="51.8947368" rx="1.54296875" ry="1.52631579"></ellipse>
                        <ellipse id="Oval-3" cx="50.3007812" cy="51.8947368" rx="1.54296875" ry="1.52631579"></ellipse>
                        <ellipse id="Oval-3" cx="39.5" cy="51.8947368" rx="1.54296875" ry="1.52631579"></ellipse>
                        <ellipse id="Oval-3" cx="28.6992187" cy="51.8947368" rx="1.54296875" ry="1.52631579"></ellipse>
                        <ellipse id="Oval-3" cx="17.8984375" cy="51.8947368" rx="1.54296875" ry="1.52631579"></ellipse>
                        <ellipse id="Oval-3" cx="7.09765625" cy="51.8947368" rx="1.54296875" ry="1.52631579"></ellipse>
                        <ellipse id="Oval-3" cx="77.4570313" cy="47.3157895" rx="1.54296875" ry="1.52631579"></ellipse>
                        <ellipse id="Oval-3" cx="66.65625" cy="47.3157895" rx="1.54296875" ry="1.52631579"></ellipse>
                        <ellipse id="Oval-3" cx="55.8554688" cy="47.3157895" rx="1.54296875" ry="1.52631579"></ellipse>
                        <ellipse id="Oval-3" cx="45.0546875" cy="47.3157895" rx="1.54296875" ry="1.52631579"></ellipse>
                        <ellipse id="Oval-3" cx="34.2539063" cy="47.3157895" rx="1.54296875" ry="1.52631579"></ellipse>
                        <ellipse id="Oval-3" cx="23.453125" cy="47.3157895" rx="1.54296875" ry="1.52631579"></ellipse>
                        <ellipse id="Oval-3" cx="12.6523438" cy="47.3157895" rx="1.54296875" ry="1.52631579"></ellipse>
                        <ellipse id="Oval-3" cx="1.8515625" cy="47.3157895" rx="1.54296875" ry="1.52631579"></ellipse>
                        <ellipse id="Oval-3" cx="71.9023437" cy="61.0526316" rx="1.54296875" ry="1.52631579"></ellipse>
                        <ellipse id="Oval-3" cx="61.1015625" cy="61.0526316" rx="1.54296875" ry="1.52631579"></ellipse>
                        <ellipse id="Oval-3" cx="50.3007812" cy="61.0526316" rx="1.54296875" ry="1.52631579"></ellipse>
                        <ellipse id="Oval-3" cx="39.5" cy="61.0526316" rx="1.54296875" ry="1.52631579"></ellipse>
                        <ellipse id="Oval-3" cx="28.6992187" cy="61.0526316" rx="1.54296875" ry="1.52631579"></ellipse>
                        <ellipse id="Oval-3" cx="17.8984375" cy="61.0526316" rx="1.54296875" ry="1.52631579"></ellipse>
                        <ellipse id="Oval-3" cx="7.09765625" cy="61.0526316" rx="1.54296875" ry="1.52631579"></ellipse>
                        <ellipse id="Oval-3" cx="77.4570313" cy="56.4736842" rx="1.54296875" ry="1.52631579"></ellipse>
                        <ellipse id="Oval-3" cx="66.65625" cy="56.4736842" rx="1.54296875" ry="1.52631579"></ellipse>
                        <ellipse id="Oval-3" cx="55.8554688" cy="56.4736842" rx="1.54296875" ry="1.52631579"></ellipse>
                        <ellipse id="Oval-3" cx="45.0546875" cy="56.4736842" rx="1.54296875" ry="1.52631579"></ellipse>
                        <ellipse id="Oval-3" cx="34.2539063" cy="56.4736842" rx="1.54296875" ry="1.52631579"></ellipse>
                        <ellipse id="Oval-3" cx="23.453125" cy="56.4736842" rx="1.54296875" ry="1.52631579"></ellipse>
                        <ellipse id="Oval-3" cx="12.6523438" cy="56.4736842" rx="1.54296875" ry="1.52631579"></ellipse>
                        <ellipse id="Oval-3" cx="1.8515625" cy="56.4736842" rx="1.54296875" ry="1.52631579"></ellipse>
                        <ellipse id="Oval-3" cx="71.9023437" cy="70.2105263" rx="1.54296875" ry="1.52631579"></ellipse>
                        <ellipse id="Oval-3" cx="61.1015625" cy="70.2105263" rx="1.54296875" ry="1.52631579"></ellipse>
                        <ellipse id="Oval-3" cx="50.3007812" cy="70.2105263" rx="1.54296875" ry="1.52631579"></ellipse>
                        <ellipse id="Oval-3" cx="39.5" cy="70.2105263" rx="1.54296875" ry="1.52631579"></ellipse>
                        <ellipse id="Oval-3" cx="28.6992187" cy="70.2105263" rx="1.54296875" ry="1.52631579"></ellipse>
                        <ellipse id="Oval-3" cx="17.8984375" cy="70.2105263" rx="1.54296875" ry="1.52631579"></ellipse>
                        <ellipse id="Oval-3" cx="7.09765625" cy="70.2105263" rx="1.54296875" ry="1.52631579"></ellipse>
                        <ellipse id="Oval-3" cx="77.4570313" cy="65.6315789" rx="1.54296875" ry="1.52631579"></ellipse>
                        <ellipse id="Oval-3" cx="66.65625" cy="65.6315789" rx="1.54296875" ry="1.52631579"></ellipse>
                        <ellipse id="Oval-3" cx="55.8554688" cy="65.6315789" rx="1.54296875" ry="1.52631579"></ellipse>
                        <ellipse id="Oval-3" cx="45.0546875" cy="65.6315789" rx="1.54296875" ry="1.52631579"></ellipse>
                        <ellipse id="Oval-3" cx="34.2539063" cy="65.6315789" rx="1.54296875" ry="1.52631579"></ellipse>
                        <ellipse id="Oval-3" cx="23.453125" cy="65.6315789" rx="1.54296875" ry="1.52631579"></ellipse>
                        <ellipse id="Oval-3" cx="12.6523438" cy="65.6315789" rx="1.54296875" ry="1.52631579"></ellipse>
                        <ellipse id="Oval-3" cx="1.8515625" cy="65.6315789" rx="1.54296875" ry="1.52631579"></ellipse>
                        <ellipse id="Oval-3" cx="77.4570313" cy="74.7894737" rx="1.54296875" ry="1.52631579"></ellipse>
                        <ellipse id="Oval-3" cx="66.65625" cy="74.7894737" rx="1.54296875" ry="1.52631579"></ellipse>
                        <ellipse id="Oval-3" cx="55.8554688" cy="74.7894737" rx="1.54296875" ry="1.52631579"></ellipse>
                        <ellipse id="Oval-3" cx="45.0546875" cy="74.7894737" rx="1.54296875" ry="1.52631579"></ellipse>
                        <ellipse id="Oval-3" cx="34.2539063" cy="74.7894737" rx="1.54296875" ry="1.52631579"></ellipse>
                        <ellipse id="Oval-3" cx="23.453125" cy="74.7894737" rx="1.54296875" ry="1.52631579"></ellipse>
                        <ellipse id="Oval-3" cx="12.6523438" cy="74.7894737" rx="1.54296875" ry="1.52631579"></ellipse>
                        <ellipse id="Oval-3" cx="1.8515625" cy="74.7894737" rx="1.54296875" ry="1.52631579"></ellipse>
                    </g>
                    <g fill-rule="nonzero">
                        <use fill="black" fill-opacity="1" filter="url(#filter-3)" xlink:href="#path-2"></use>
                        <use fill="url(#linearGradient-1)" xlink:href="#path-2"></use>
                    </g>
                    <path d="M102.230998,27.2408672 C101.94123,26.8137726 101.553708,26.4594962 101.043,26.2175259 L55.0947,0.815752132 C52.8339916,-0.271917377 50.1454084,-0.271917377 47.8847,0.815752132 L1.9879,26.2175259 C1.21025879,26.5859677 0.7102934,27.2147951 0.40626389,27.9646009 C0.110281362,28.6945611 102.811996,28.0972111 102.230998,27.2408672 Z" id="envelope-top" fill="url(#linearGradient-4)" fill-rule="nonzero"></path>
                    <path d="M102.216601,27.2457157 L56.8071585,57.644525 C53.0124277,59.4192195 48.9121948,59.4192195 45.3326943,57.7423416 L44.9022338,57.5047871 L0.416477598,27.9535302 L102.216601,27.2457157 Z" id="envelope-center" fill="url(#linearGradient-4)" fill-rule="nonzero"></path>
                    <path d="M102.87117,82.2499025 C102.534921,84.6472337 100.231533,87.0445649 96.8980531,87.0445649 L5.96965315,87.0445649 C2.63617286,87.0445649 0.288787842,84.5702607 0,82.2499025 L40.9983533,55 L44.8360869,57.549352 L45.2665475,57.7869065 C48.846048,59.4637844 52.9462809,59.4637844 56.7410117,57.68909 L60.6415272,55.0779364 L102.87117,82.2499025 Z" id="envelope-bottom" fill="url(#linearGradient-5)" fill-rule="nonzero"></path>
                </g>
                <path d="M80.8867868,105.778558 L74.0082133,96.1147673 L62.0950815,96.2658243 C61.6834897,96.2711128 61.3045876,96.0437253 61.1177666,95.679316 C60.9309457,95.3149068 60.9686255,94.8767131 61.2149555,94.5490684 L68.3401265,85.0630827 L64.5140979,73.8535199 C64.3821371,73.4661959 64.4828202,73.0380295 64.7738521,72.7488856 C65.0648841,72.4597418 65.4958464,72.3597118 65.8856996,72.4908166 L77.1679303,76.2925499 L86.715848,69.213561 C87.0456322,68.9688291 87.4866873,68.9313937 87.8534761,69.1170026 C88.2202649,69.3026116 88.4491372,69.6790555 88.4438142,70.0879771 L88.2917708,81.9237894 L98.0186654,88.7577914 C98.3548297,88.9937831 98.5269489,89.398951 98.4626262,89.8028732 C98.3983034,90.2067953 98.1086993,90.5393868 97.7156275,90.6607528 L86.3383669,94.1740041 L82.8021744,105.47696 C82.6799749,105.867406 82.3452956,106.155093 81.9388134,106.219098 C81.5323311,106.283103 81.1245162,106.112329 80.8867868,105.778558 Z M92.092466,97.8782411 L118.819264,124.431088 C119.092381,124.702434 119.199046,125.097929 119.099078,125.468594 C118.99911,125.839259 118.707697,126.128781 118.334612,126.2281 C117.961526,126.32742 117.563449,126.221447 117.290331,125.950101 L90.5635337,99.3971899 C90.1458711,98.9769634 90.1480277,98.3005625 90.5683616,97.8829734 C90.9886954,97.4653842 91.6695132,97.4632703 92.092466,97.8782411 Z M138.345917,80.1005782 L138.345961,80.1005352 C138.72403,80.2620882 138.977002,80.6228735 138.998515,81.0311997 C139.020029,81.4395259 138.806353,81.8245794 138.447326,82.0244654 L132.307302,85.4433033 L131.660571,92.4073828 C131.622876,92.8145948 131.355695,93.1652068 130.971422,93.3117283 C130.587149,93.4582499 130.152469,93.3752546 129.850237,93.0976559 L124.679518,88.3523051 L117.813563,89.8933507 C117.412087,89.9834632 116.993936,89.8392803 116.73497,89.5214404 C116.476004,89.2036005 116.421149,88.7672435 116.593475,88.3958863 L119.538361,82.0444459 L115.941457,76.0334263 C115.730994,75.6820407 115.739591,75.2424124 115.963633,74.8994139 C116.189568,74.5584115 116.588959,74.3721702 116.997349,74.4173786 L123.987895,75.2372028 L128.631187,69.9804475 C128.902747,69.6732534 129.32626,69.5458036 129.723749,69.6516572 C130.121239,69.7575108 130.423813,70.0783215 130.50432,70.4792729 L131.879046,77.3379175 L138.345917,80.1005782 Z M111.260647,78.1283725 C111.260647,75.1619925 108.840218,72.7572664 105.854468,72.7572664 C102.868718,72.7572664 100.448289,75.1619925 100.448289,78.1283725 C100.448289,81.0947525 102.868718,83.4994786 105.854468,83.4994786 C108.838763,83.495992 111.257138,81.0933071 111.260647,78.1283725 Z M102.61076,78.1283725 C102.61076,76.8249267 103.401064,75.6498266 104.613155,75.1510195 C105.825245,74.6522124 107.220422,74.9279298 108.148115,75.8496052 C109.075809,76.7712805 109.353327,78.1574056 108.851263,79.3616325 C108.349198,80.5658593 107.166425,81.3510361 105.854468,81.3510361 C104.063828,81.3490942 102.612715,79.9073955 102.61076,78.1283725 Z M133.384797,130.144183 C133.65698,130.417524 133.761346,130.814558 133.658448,131.185219 C133.555549,131.555881 133.261082,131.843628 132.886346,131.939701 C132.511611,132.035774 132.113768,131.925518 131.843192,131.650607 C130.931959,130.73059 109.475126,108.857502 105.529254,86.6985416 C105.425161,86.1142448 105.817537,85.5567427 106.405649,85.4533258 C106.993762,85.3499089 107.554904,85.7397391 107.658996,86.3240358 C111.486614,107.819997 133.166236,129.923334 133.384797,130.144183 Z M124.927089,93.7187491 C124.161033,111.184286 129.673866,116.524466 129.729301,116.576372 C130.055085,116.877451 130.162277,117.34591 129.999526,117.75733 C129.836776,118.16875 129.437227,118.439343 128.992287,118.43948 C128.726308,118.439744 128.469765,118.34157 128.272692,118.164103 C128.013996,117.931738 121.948944,112.266382 122.766726,93.6253885 C122.810309,93.0410197 123.304145,92.5912907 123.893893,92.598895 C124.490452,92.6246934 124.95302,93.1260582 124.927089,93.7187491 Z M80.9754914,131.772821 L85.7518398,136.9095 C86.0312512,137.209771 86.1147884,137.641631 85.9673101,138.023411 C85.8198318,138.405191 85.4669303,138.670638 85.0570593,138.70809 L78.0480346,139.350109 L74.6068719,145.450826 C74.4154829,145.789911 74.0547275,145.999905 73.6634288,146 C73.6449505,146 73.6259424,145.999506 73.6069342,145.998432 C73.1959331,145.977204 72.8327719,145.725818 72.670357,145.350118 L69.8896564,138.925201 L62.9862144,137.55935 C62.5826349,137.479372 62.2597195,137.178756 62.1531736,136.783836 C62.0466277,136.388917 62.1749186,135.968144 62.4841318,135.698347 L67.7752132,131.085169 L66.9495059,124.139974 C66.9012896,123.733857 67.0893434,123.335765 67.4345848,123.113109 C67.7798262,122.890453 68.2223676,122.881856 68.5761062,123.090933 L74.6264423,126.664491 L81.0198869,123.73871 C81.393669,123.567502 81.8328754,123.622001 82.1527908,123.879287 C82.4727062,124.136573 82.6178306,124.552011 82.5271296,124.950882 L80.9754914,131.772821 Z M65.2790939,113.069942 C65.2790939,116.036322 67.6995227,118.441048 70.6852729,118.441048 C73.6710231,118.441048 76.0914519,116.036322 76.0914519,113.069942 C76.0914519,110.103562 73.6710231,107.698836 70.6852729,107.698836 C67.7009775,107.702322 65.2826032,110.105007 65.2790939,113.069942 Z M73.9289803,113.069942 C73.9289803,114.373388 73.1386764,115.548488 71.926586,116.047295 C70.7144956,116.546102 69.3193192,116.270385 68.3916254,115.348709 C67.4639316,114.427034 67.1864137,113.040909 67.688478,111.836682 C68.1905423,110.632455 69.3733157,109.847278 70.6852729,109.847278 C72.4759128,109.84922 73.9270258,111.290919 73.9289803,113.069942 Z M127.243723,141.204258 C127.521989,141.471413 127.635339,141.865943 127.540944,142.23878 C127.446549,142.611617 127.158803,142.905912 126.786427,143.010468 C126.414051,143.115024 126.013824,143.013899 125.736967,142.745303 C125.487764,142.505075 100.576048,118.66657 78.9339128,114.862753 C78.3458006,114.759336 77.9534249,114.201834 78.0575171,113.617537 C78.1616093,113.03324 78.7227518,112.64341 79.310864,112.746827 C101.610834,116.666585 126.207359,140.203996 127.243723,141.204258 Z M105.075221,133.795902 C104.982406,134.065641 104.785229,134.287516 104.527318,134.412436 C104.269408,134.537355 103.972025,134.55502 103.70097,134.461521 C98.1325541,132.570997 92.2549116,131.742071 86.376913,132.018302 C85.7835907,132.035327 85.2841928,131.580533 85.2497463,130.991808 C85.2238156,130.399117 85.6863832,129.897753 86.2829428,129.871954 C92.4319513,129.584214 98.5803686,130.452283 104.405255,132.430566 C104.676438,132.523213 104.899425,132.719169 105.025091,132.975265 C105.150756,133.231361 105.168791,133.526586 105.075221,133.795902 Z" id="Shape" fill="#FFC000" fill-rule="nonzero" transform="translate(100.000000, 107.500000) rotate(45.000000) translate(-100.000000, -107.500000) "></path>
                <g id="*1" transform="translate(36.000000, 0.000000)">
                    <rect id="Rectangle-14-Copy-7" fill="url(#linearGradient-6)" x="0" y="0" width="30" height="42" rx="2"></rect>
                    <polygon id="*" fill="#FFFFFF" points="17.1606641 29.81875 12.8745313 29.81875 13.44875 23.4818359 8.30128906 27.1732422 6.23 23.6048828 11.9926953 20.959375 6.23 18.3138672 8.30128906 14.7455078 13.44875 18.4369141 12.8745313 12.1 17.1606641 12.1 16.5659375 18.4369141 21.7339063 14.7455078 23.7846875 18.3138672 18.0425 20.959375 23.7846875 23.6048828 21.7339063 27.1732422 16.5659375 23.4818359"></polygon>
                </g>
                <g id="*2" transform="translate(69.000000, 0.000000)">
                    <rect id="Rectangle-14-Copy-7" fill="url(#linearGradient-6)" x="0" y="0" width="30" height="42" rx="2"></rect>
                    <polygon id="*" fill="#FFFFFF" points="17.1606641 29.81875 12.8745313 29.81875 13.44875 23.4818359 8.30128906 27.1732422 6.23 23.6048828 11.9926953 20.959375 6.23 18.3138672 8.30128906 14.7455078 13.44875 18.4369141 12.8745313 12.1 17.1606641 12.1 16.5659375 18.4369141 21.7339063 14.7455078 23.7846875 18.3138672 18.0425 20.959375 23.7846875 23.6048828 21.7339063 27.1732422 16.5659375 23.4818359"></polygon>
                </g>
                <g id="*3" transform="translate(102.000000, 0.000000)">
                    <rect id="Rectangle-14-Copy-7" fill="url(#linearGradient-6)" x="0" y="0" width="30" height="42" rx="2"></rect>
                    <polygon id="*" fill="#FFFFFF" points="17.1606641 29.81875 12.8745313 29.81875 13.44875 23.4818359 8.30128906 27.1732422 6.23 23.6048828 11.9926953 20.959375 6.23 18.3138672 8.30128906 14.7455078 13.44875 18.4369141 12.8745313 12.1 17.1606641 12.1 16.5659375 18.4369141 21.7339063 14.7455078 23.7846875 18.3138672 18.0425 20.959375 23.7846875 23.6048828 21.7339063 27.1732422 16.5659375 23.4818359"></polygon>
                </g>
                <g id="*4" transform="translate(135.000000, 0.000000)">
                    <rect id="Rectangle-14-Copy-7" fill="url(#linearGradient-6)" x="0" y="0" width="30" height="42" rx="2"></rect>
                    <polygon id="*" fill="#FFFFFF" points="17.1606641 29.81875 12.8745313 29.81875 13.44875 23.4818359 8.30128906 27.1732422 6.23 23.6048828 11.9926953 20.959375 6.23 18.3138672 8.30128906 14.7455078 13.44875 18.4369141 12.8745313 12.1 17.1606641 12.1 16.5659375 18.4369141 21.7339063 14.7455078 23.7846875 18.3138672 18.0425 20.959375 23.7846875 23.6048828 21.7339063 27.1732422 16.5659375 23.4818359"></polygon>
                </g>
            </g>
        </g>
    </g>
</svg>