<?xml version="1.0" encoding="UTF-8"?>
<svg width="243px" height="293px" viewBox="0 0 243 293" version="1.1" xmlns="http://www.w3.org/2000/svg" xmlns:xlink="http://www.w3.org/1999/xlink">
    <!-- Generator: Sketch 51.3 (57544) - http://www.bohemiancoding.com/sketch -->
    <defs>
        <path d="M113.066077,58.4316129 C112.881474,58.0692581 112.643474,57.7266129 112.330718,57.4324839 L101.010462,46.8317097 C98.9447436,44.9062258 94.8300897,40.7247419 90.8634231,40.7247419 L25.2105128,40.7247419 C20.3101538,40.7247419 16.4579103,45.1488065 14.3799872,47.551871 L5.37260256,56.8988065 C5.30852564,56.964 5.26428205,57.0398065 5.20783333,57.1080323 C2.08637179,59.7218387 0.0954102564,63.6273871 0.0954102564,67.9892903 L0.0954102564,79.2783871 C0.0954102564,87.1213226 6.51530769,93.5011935 14.4074487,93.5011935 L102.496436,93.5011935 C110.387051,93.5011935 116.808474,87.1213226 116.808474,79.2783871 L116.808474,67.9892903 C116.806949,64.308129 115.380474,60.959 113.066077,58.4316129 Z M109.514385,79.276871 C109.514385,83.1217742 106.366987,86.2510645 102.496436,86.2510645 L14.4059231,86.2510645 C10.5368974,86.2510645 7.3895,83.1232903 7.3895,79.276871 L7.3895,69.9877742 C7.3895,66.142871 10.5368974,63.0135806 14.4074487,63.0135806 L102.496436,63.0135806 C106.365462,63.0135806 109.514385,66.1413548 109.514385,69.9877742 L109.514385,79.276871 Z" id="path-1"></path>
        <filter x="-3.4%" y="-3.8%" width="106.9%" height="115.2%" filterUnits="objectBoundingBox" id="filter-2">
            <feOffset dx="0" dy="2" in="SourceAlpha" result="shadowOffsetOuter1"></feOffset>
            <feGaussianBlur stdDeviation="1" in="shadowOffsetOuter1" result="shadowBlurOuter1"></feGaussianBlur>
            <feColorMatrix values="0 0 0 0 0   0 0 0 0 0   0 0 0 0 0  0 0 0 0.5 0" type="matrix" in="shadowBlurOuter1"></feColorMatrix>
        </filter>
    </defs>
    <g id="Page-1" stroke="none" stroke-width="1" fill="none" fill-rule="evenodd">
        <g id="First_page_final" transform="translate(-403.000000, -366.000000)">
            <g id="Рисунок" transform="translate(404.000000, 366.000000)">
                <g id="Group" transform="translate(81.000000, 216.000000)" fill="#B3F7F0">
                    <ellipse id="Oval-3" cx="71.9023438" cy="6.10526316" rx="1.54296875" ry="1.52631579"></ellipse>
                    <ellipse id="Oval-3" cx="61.1015625" cy="6.10526316" rx="1.54296875" ry="1.52631579"></ellipse>
                    <ellipse id="Oval-3" cx="50.3007813" cy="6.10526316" rx="1.54296875" ry="1.52631579"></ellipse>
                    <ellipse id="Oval-3" cx="39.5" cy="6.10526316" rx="1.54296875" ry="1.52631579"></ellipse>
                    <ellipse id="Oval-3" cx="28.6992188" cy="6.10526316" rx="1.54296875" ry="1.52631579"></ellipse>
                    <ellipse id="Oval-3" cx="17.8984375" cy="6.10526316" rx="1.54296875" ry="1.52631579"></ellipse>
                    <ellipse id="Oval-3" cx="7.09765625" cy="6.10526316" rx="1.54296875" ry="1.52631579"></ellipse>
                    <ellipse id="Oval-3" cx="77.4570313" cy="1.52631579" rx="1.54296875" ry="1.52631579"></ellipse>
                    <ellipse id="Oval-3" cx="66.65625" cy="1.52631579" rx="1.54296875" ry="1.52631579"></ellipse>
                    <ellipse id="Oval-3" cx="55.8554688" cy="1.52631579" rx="1.54296875" ry="1.52631579"></ellipse>
                    <ellipse id="Oval-3" cx="45.0546875" cy="1.52631579" rx="1.54296875" ry="1.52631579"></ellipse>
                    <ellipse id="Oval-3" cx="34.2539063" cy="1.52631579" rx="1.54296875" ry="1.52631579"></ellipse>
                    <ellipse id="Oval-3" cx="23.453125" cy="1.52631579" rx="1.54296875" ry="1.52631579"></ellipse>
                    <ellipse id="Oval-3" cx="12.6523438" cy="1.52631579" rx="1.54296875" ry="1.52631579"></ellipse>
                    <ellipse id="Oval-3" cx="1.8515625" cy="1.52631579" rx="1.54296875" ry="1.52631579"></ellipse>
                    <ellipse id="Oval-3" cx="71.9023437" cy="15.2631579" rx="1.54296875" ry="1.52631579"></ellipse>
                    <ellipse id="Oval-3" cx="61.1015625" cy="15.2631579" rx="1.54296875" ry="1.52631579"></ellipse>
                    <ellipse id="Oval-3" cx="50.3007812" cy="15.2631579" rx="1.54296875" ry="1.52631579"></ellipse>
                    <ellipse id="Oval-3" cx="39.5" cy="15.2631579" rx="1.54296875" ry="1.52631579"></ellipse>
                    <ellipse id="Oval-3" cx="28.6992187" cy="15.2631579" rx="1.54296875" ry="1.52631579"></ellipse>
                    <ellipse id="Oval-3" cx="17.8984375" cy="15.2631579" rx="1.54296875" ry="1.52631579"></ellipse>
                    <ellipse id="Oval-3" cx="7.09765625" cy="15.2631579" rx="1.54296875" ry="1.52631579"></ellipse>
                    <ellipse id="Oval-3" cx="77.4570313" cy="10.6842105" rx="1.54296875" ry="1.52631579"></ellipse>
                    <ellipse id="Oval-3" cx="66.65625" cy="10.6842105" rx="1.54296875" ry="1.52631579"></ellipse>
                    <ellipse id="Oval-3" cx="55.8554688" cy="10.6842105" rx="1.54296875" ry="1.52631579"></ellipse>
                    <ellipse id="Oval-3" cx="45.0546875" cy="10.6842105" rx="1.54296875" ry="1.52631579"></ellipse>
                    <ellipse id="Oval-3" cx="34.2539063" cy="10.6842105" rx="1.54296875" ry="1.52631579"></ellipse>
                    <ellipse id="Oval-3" cx="23.453125" cy="10.6842105" rx="1.54296875" ry="1.52631579"></ellipse>
                    <ellipse id="Oval-3" cx="12.6523438" cy="10.6842105" rx="1.54296875" ry="1.52631579"></ellipse>
                    <ellipse id="Oval-3" cx="1.8515625" cy="10.6842105" rx="1.54296875" ry="1.52631579"></ellipse>
                    <ellipse id="Oval-3" cx="71.9023437" cy="24.4210526" rx="1.54296875" ry="1.52631579"></ellipse>
                    <ellipse id="Oval-3" cx="61.1015625" cy="24.4210526" rx="1.54296875" ry="1.52631579"></ellipse>
                    <ellipse id="Oval-3" cx="50.3007812" cy="24.4210526" rx="1.54296875" ry="1.52631579"></ellipse>
                    <ellipse id="Oval-3" cx="39.5" cy="24.4210526" rx="1.54296875" ry="1.52631579"></ellipse>
                    <ellipse id="Oval-3" cx="28.6992187" cy="24.4210526" rx="1.54296875" ry="1.52631579"></ellipse>
                    <ellipse id="Oval-3" cx="17.8984375" cy="24.4210526" rx="1.54296875" ry="1.52631579"></ellipse>
                    <ellipse id="Oval-3" cx="7.09765625" cy="24.4210526" rx="1.54296875" ry="1.52631579"></ellipse>
                    <ellipse id="Oval-3" cx="77.4570313" cy="19.8421053" rx="1.54296875" ry="1.52631579"></ellipse>
                    <ellipse id="Oval-3" cx="66.65625" cy="19.8421053" rx="1.54296875" ry="1.52631579"></ellipse>
                    <ellipse id="Oval-3" cx="55.8554688" cy="19.8421053" rx="1.54296875" ry="1.52631579"></ellipse>
                    <ellipse id="Oval-3" cx="45.0546875" cy="19.8421053" rx="1.54296875" ry="1.52631579"></ellipse>
                    <ellipse id="Oval-3" cx="34.2539063" cy="19.8421053" rx="1.54296875" ry="1.52631579"></ellipse>
                    <ellipse id="Oval-3" cx="23.453125" cy="19.8421053" rx="1.54296875" ry="1.52631579"></ellipse>
                    <ellipse id="Oval-3" cx="12.6523438" cy="19.8421053" rx="1.54296875" ry="1.52631579"></ellipse>
                    <ellipse id="Oval-3" cx="1.8515625" cy="19.8421053" rx="1.54296875" ry="1.52631579"></ellipse>
                    <ellipse id="Oval-3" cx="71.9023437" cy="33.5789474" rx="1.54296875" ry="1.52631579"></ellipse>
                    <ellipse id="Oval-3" cx="61.1015625" cy="33.5789474" rx="1.54296875" ry="1.52631579"></ellipse>
                    <ellipse id="Oval-3" cx="50.3007812" cy="33.5789474" rx="1.54296875" ry="1.52631579"></ellipse>
                    <ellipse id="Oval-3" cx="39.5" cy="33.5789474" rx="1.54296875" ry="1.52631579"></ellipse>
                    <ellipse id="Oval-3" cx="28.6992187" cy="33.5789474" rx="1.54296875" ry="1.52631579"></ellipse>
                    <ellipse id="Oval-3" cx="17.8984375" cy="33.5789474" rx="1.54296875" ry="1.52631579"></ellipse>
                    <ellipse id="Oval-3" cx="7.09765625" cy="33.5789474" rx="1.54296875" ry="1.52631579"></ellipse>
                    <ellipse id="Oval-3" cx="77.4570313" cy="29" rx="1.54296875" ry="1.52631579"></ellipse>
                    <ellipse id="Oval-3" cx="66.65625" cy="29" rx="1.54296875" ry="1.52631579"></ellipse>
                    <ellipse id="Oval-3" cx="55.8554688" cy="29" rx="1.54296875" ry="1.52631579"></ellipse>
                    <ellipse id="Oval-3" cx="45.0546875" cy="29" rx="1.54296875" ry="1.52631579"></ellipse>
                    <ellipse id="Oval-3" cx="34.2539063" cy="29" rx="1.54296875" ry="1.52631579"></ellipse>
                    <ellipse id="Oval-3" cx="23.453125" cy="29" rx="1.54296875" ry="1.52631579"></ellipse>
                    <ellipse id="Oval-3" cx="12.6523438" cy="29" rx="1.54296875" ry="1.52631579"></ellipse>
                    <ellipse id="Oval-3" cx="1.8515625" cy="29" rx="1.54296875" ry="1.52631579"></ellipse>
                    <ellipse id="Oval-3" cx="71.9023437" cy="42.7368421" rx="1.54296875" ry="1.52631579"></ellipse>
                    <ellipse id="Oval-3" cx="61.1015625" cy="42.7368421" rx="1.54296875" ry="1.52631579"></ellipse>
                    <ellipse id="Oval-3" cx="50.3007812" cy="42.7368421" rx="1.54296875" ry="1.52631579"></ellipse>
                    <ellipse id="Oval-3" cx="39.5" cy="42.7368421" rx="1.54296875" ry="1.52631579"></ellipse>
                    <ellipse id="Oval-3" cx="28.6992187" cy="42.7368421" rx="1.54296875" ry="1.52631579"></ellipse>
                    <ellipse id="Oval-3" cx="17.8984375" cy="42.7368421" rx="1.54296875" ry="1.52631579"></ellipse>
                    <ellipse id="Oval-3" cx="7.09765625" cy="42.7368421" rx="1.54296875" ry="1.52631579"></ellipse>
                    <ellipse id="Oval-3" cx="77.4570313" cy="38.1578947" rx="1.54296875" ry="1.52631579"></ellipse>
                    <ellipse id="Oval-3" cx="66.65625" cy="38.1578947" rx="1.54296875" ry="1.52631579"></ellipse>
                    <ellipse id="Oval-3" cx="55.8554688" cy="38.1578947" rx="1.54296875" ry="1.52631579"></ellipse>
                    <ellipse id="Oval-3" cx="45.0546875" cy="38.1578947" rx="1.54296875" ry="1.52631579"></ellipse>
                    <ellipse id="Oval-3" cx="34.2539063" cy="38.1578947" rx="1.54296875" ry="1.52631579"></ellipse>
                    <ellipse id="Oval-3" cx="23.453125" cy="38.1578947" rx="1.54296875" ry="1.52631579"></ellipse>
                    <ellipse id="Oval-3" cx="12.6523438" cy="38.1578947" rx="1.54296875" ry="1.52631579"></ellipse>
                    <ellipse id="Oval-3" cx="1.8515625" cy="38.1578947" rx="1.54296875" ry="1.52631579"></ellipse>
                    <ellipse id="Oval-3" cx="71.9023437" cy="51.8947368" rx="1.54296875" ry="1.52631579"></ellipse>
                    <ellipse id="Oval-3" cx="61.1015625" cy="51.8947368" rx="1.54296875" ry="1.52631579"></ellipse>
                    <ellipse id="Oval-3" cx="50.3007812" cy="51.8947368" rx="1.54296875" ry="1.52631579"></ellipse>
                    <ellipse id="Oval-3" cx="39.5" cy="51.8947368" rx="1.54296875" ry="1.52631579"></ellipse>
                    <ellipse id="Oval-3" cx="28.6992187" cy="51.8947368" rx="1.54296875" ry="1.52631579"></ellipse>
                    <ellipse id="Oval-3" cx="17.8984375" cy="51.8947368" rx="1.54296875" ry="1.52631579"></ellipse>
                    <ellipse id="Oval-3" cx="7.09765625" cy="51.8947368" rx="1.54296875" ry="1.52631579"></ellipse>
                    <ellipse id="Oval-3" cx="77.4570313" cy="47.3157895" rx="1.54296875" ry="1.52631579"></ellipse>
                    <ellipse id="Oval-3" cx="66.65625" cy="47.3157895" rx="1.54296875" ry="1.52631579"></ellipse>
                    <ellipse id="Oval-3" cx="55.8554688" cy="47.3157895" rx="1.54296875" ry="1.52631579"></ellipse>
                    <ellipse id="Oval-3" cx="45.0546875" cy="47.3157895" rx="1.54296875" ry="1.52631579"></ellipse>
                    <ellipse id="Oval-3" cx="34.2539063" cy="47.3157895" rx="1.54296875" ry="1.52631579"></ellipse>
                    <ellipse id="Oval-3" cx="23.453125" cy="47.3157895" rx="1.54296875" ry="1.52631579"></ellipse>
                    <ellipse id="Oval-3" cx="12.6523438" cy="47.3157895" rx="1.54296875" ry="1.52631579"></ellipse>
                    <ellipse id="Oval-3" cx="1.8515625" cy="47.3157895" rx="1.54296875" ry="1.52631579"></ellipse>
                    <ellipse id="Oval-3" cx="71.9023437" cy="61.0526316" rx="1.54296875" ry="1.52631579"></ellipse>
                    <ellipse id="Oval-3" cx="61.1015625" cy="61.0526316" rx="1.54296875" ry="1.52631579"></ellipse>
                    <ellipse id="Oval-3" cx="50.3007812" cy="61.0526316" rx="1.54296875" ry="1.52631579"></ellipse>
                    <ellipse id="Oval-3" cx="39.5" cy="61.0526316" rx="1.54296875" ry="1.52631579"></ellipse>
                    <ellipse id="Oval-3" cx="28.6992187" cy="61.0526316" rx="1.54296875" ry="1.52631579"></ellipse>
                    <ellipse id="Oval-3" cx="17.8984375" cy="61.0526316" rx="1.54296875" ry="1.52631579"></ellipse>
                    <ellipse id="Oval-3" cx="7.09765625" cy="61.0526316" rx="1.54296875" ry="1.52631579"></ellipse>
                    <ellipse id="Oval-3" cx="77.4570313" cy="56.4736842" rx="1.54296875" ry="1.52631579"></ellipse>
                    <ellipse id="Oval-3" cx="66.65625" cy="56.4736842" rx="1.54296875" ry="1.52631579"></ellipse>
                    <ellipse id="Oval-3" cx="55.8554688" cy="56.4736842" rx="1.54296875" ry="1.52631579"></ellipse>
                    <ellipse id="Oval-3" cx="45.0546875" cy="56.4736842" rx="1.54296875" ry="1.52631579"></ellipse>
                    <ellipse id="Oval-3" cx="34.2539063" cy="56.4736842" rx="1.54296875" ry="1.52631579"></ellipse>
                    <ellipse id="Oval-3" cx="23.453125" cy="56.4736842" rx="1.54296875" ry="1.52631579"></ellipse>
                    <ellipse id="Oval-3" cx="12.6523438" cy="56.4736842" rx="1.54296875" ry="1.52631579"></ellipse>
                    <ellipse id="Oval-3" cx="1.8515625" cy="56.4736842" rx="1.54296875" ry="1.52631579"></ellipse>
                    <ellipse id="Oval-3" cx="71.9023437" cy="70.2105263" rx="1.54296875" ry="1.52631579"></ellipse>
                    <ellipse id="Oval-3" cx="61.1015625" cy="70.2105263" rx="1.54296875" ry="1.52631579"></ellipse>
                    <ellipse id="Oval-3" cx="50.3007812" cy="70.2105263" rx="1.54296875" ry="1.52631579"></ellipse>
                    <ellipse id="Oval-3" cx="39.5" cy="70.2105263" rx="1.54296875" ry="1.52631579"></ellipse>
                    <ellipse id="Oval-3" cx="28.6992187" cy="70.2105263" rx="1.54296875" ry="1.52631579"></ellipse>
                    <ellipse id="Oval-3" cx="17.8984375" cy="70.2105263" rx="1.54296875" ry="1.52631579"></ellipse>
                    <ellipse id="Oval-3" cx="7.09765625" cy="70.2105263" rx="1.54296875" ry="1.52631579"></ellipse>
                    <ellipse id="Oval-3" cx="77.4570313" cy="65.6315789" rx="1.54296875" ry="1.52631579"></ellipse>
                    <ellipse id="Oval-3" cx="66.65625" cy="65.6315789" rx="1.54296875" ry="1.52631579"></ellipse>
                    <ellipse id="Oval-3" cx="55.8554688" cy="65.6315789" rx="1.54296875" ry="1.52631579"></ellipse>
                    <ellipse id="Oval-3" cx="45.0546875" cy="65.6315789" rx="1.54296875" ry="1.52631579"></ellipse>
                    <ellipse id="Oval-3" cx="34.2539063" cy="65.6315789" rx="1.54296875" ry="1.52631579"></ellipse>
                    <ellipse id="Oval-3" cx="23.453125" cy="65.6315789" rx="1.54296875" ry="1.52631579"></ellipse>
                    <ellipse id="Oval-3" cx="12.6523438" cy="65.6315789" rx="1.54296875" ry="1.52631579"></ellipse>
                    <ellipse id="Oval-3" cx="1.8515625" cy="65.6315789" rx="1.54296875" ry="1.52631579"></ellipse>
                    <ellipse id="Oval-3" cx="77.4570313" cy="74.7894737" rx="1.54296875" ry="1.52631579"></ellipse>
                    <ellipse id="Oval-3" cx="66.65625" cy="74.7894737" rx="1.54296875" ry="1.52631579"></ellipse>
                    <ellipse id="Oval-3" cx="55.8554688" cy="74.7894737" rx="1.54296875" ry="1.52631579"></ellipse>
                    <ellipse id="Oval-3" cx="45.0546875" cy="74.7894737" rx="1.54296875" ry="1.52631579"></ellipse>
                    <ellipse id="Oval-3" cx="34.2539063" cy="74.7894737" rx="1.54296875" ry="1.52631579"></ellipse>
                    <ellipse id="Oval-3" cx="23.453125" cy="74.7894737" rx="1.54296875" ry="1.52631579"></ellipse>
                    <ellipse id="Oval-3" cx="12.6523438" cy="74.7894737" rx="1.54296875" ry="1.52631579"></ellipse>
                    <ellipse id="Oval-3" cx="1.8515625" cy="74.7894737" rx="1.54296875" ry="1.52631579"></ellipse>
                </g>
                <g id="noun_Router_285312" transform="translate(62.000000, 146.000000)">
                    <g id="Shape" fill-rule="nonzero">
                        <use fill="black" fill-opacity="1" filter="url(#filter-2)" xlink:href="#path-1"></use>
                        <use fill="#3460DF" xlink:href="#path-1"></use>
                    </g>
                    <path d="M109.514385,79.276871 C109.514385,83.1217742 106.366987,86.2510645 102.496436,86.2510645 L14.4059231,86.2510645 C10.5368974,86.2510645 7.3895,83.1232903 7.3895,79.276871 L7.3895,69.9877742 C7.3895,66.142871 10.5368974,63.0135806 14.4074487,63.0135806 L102.496436,63.0135806 C106.365462,63.0135806 109.514385,66.1413548 109.514385,69.9877742 L109.514385,79.276871 Z" id="Path" fill="#FFFFFF"></path>
                    <ellipse id="Oval" fill="#FF564E" fill-rule="nonzero" cx="19.3123846" cy="74.7217742" rx="4.92629487" ry="4.89558065"></ellipse>
                    <ellipse id="Oval" fill="#28BC00" fill-rule="nonzero" cx="33.9020897" cy="74.7217742" rx="4.92629487" ry="4.89558065"></ellipse>
                    <ellipse id="Oval" fill="#FFC000" fill-rule="nonzero" cx="48.4902692" cy="74.7217742" rx="4.92629487" ry="4.89558065"></ellipse>
                    <path d="M26.0862308,39.7832258 C26.1960769,39.7832258 26.3074487,39.7786774 26.4172949,39.7680645 C28.4235128,39.5891613 29.9049103,37.8274194 29.723359,35.8337097 L26.8048077,3.57654839 C26.6247821,1.58283871 24.8321538,0.10916129 22.8457692,0.291096774 C20.8395513,0.47 19.3581538,2.23174194 19.5397051,4.22545161 L22.4582564,36.4826129 C22.6291282,38.3671613 24.2203718,39.7832258 26.0862308,39.7832258 Z" id="Shape" fill="#3460DF" fill-rule="nonzero" transform="translate(24.631532, 20.029567) rotate(-34.000000) translate(-24.631532, -20.029567) "></path>
                    <path d="M89.1653846,39.7680645 C89.2767564,39.7786774 89.3881282,39.7832258 89.4964487,39.7832258 C91.365359,39.7832258 92.9566026,38.3671613 93.1259487,36.4826129 L96.0429744,4.22545161 C96.2214744,2.23174194 94.7416026,0.47 92.7353846,0.291096774 C90.7383205,0.119774194 88.9563718,1.58283871 88.7778718,3.57654839 L85.8608462,35.8337097 C85.6777692,37.8289355 87.1591667,39.5891613 89.1653846,39.7680645 Z" id="Shape" fill="#3460DF" fill-rule="nonzero" transform="translate(90.951557, 20.030345) rotate(34.000000) translate(-90.951557, -20.030345) "></path>
                    <path d="M97.910359,70.9147742 L83.1391026,70.9147742 C81.1252564,70.9147742 79.4897692,72.5355161 79.4897692,74.5398387 C79.4912949,76.5426452 81.1237308,78.1664194 83.1391026,78.1664194 L97.910359,78.1664194 C99.9242051,78.1664194 101.558167,76.5456774 101.558167,74.5398387 C101.558167,72.5400645 99.9242051,70.9147742 97.910359,70.9147742 Z" id="Shape" fill="#DBDEE0" fill-rule="nonzero"></path>
                </g>
                <g id="Group-2" transform="translate(33.000000, 44.000000)" fill="#D1DADF" fill-rule="nonzero">
                    <path d="M165.733979,45.7676554 C164.130279,45.7676554 162.526578,45.1501103 161.30501,43.9213215 C119.784204,2.15510645 52.2157959,2.16140793 10.6949903,43.9213215 C8.24558848,46.3852005 4.28645312,46.3852005 1.83705134,43.9213215 C-0.612350445,41.4574425 -0.612350445,37.4749066 1.83705134,35.0110276 C48.2441316,-11.6703425 123.755868,-11.6703425 170.162949,35.0110276 C172.61235,37.4749066 172.61235,41.4574425 170.162949,43.9213215 C168.935116,45.1501103 167.331415,45.7676554 165.733979,45.7676554 Z" id="Shape"></path>
                    <path d="M24.551488,64.0753602 C22.9426739,64.0753602 21.3338597,63.4627283 20.1083959,62.2437158 C17.6511837,59.7994395 17.6511837,55.8485887 20.1083959,53.4043124 C37.9121865,35.6942488 61.5856348,25.9358974 86.7610619,25.9358974 C111.942774,25.9358974 135.609937,35.6942488 153.413728,53.4043124 C155.87094,55.8485887 155.87094,59.7994395 153.413728,62.2437158 C150.956516,64.6879922 146.984756,64.6879922 144.527544,62.2437158 C129.099268,46.896661 108.586888,38.4385897 86.7610619,38.4385897 C64.9415205,38.4385897 44.4228561,46.896661 28.9945801,62.2437158 C27.7628318,63.4627283 26.1540177,64.0753602 24.551488,64.0753602 Z" id="Shape"></path>
                    <path d="M129.244522,80.8573478 C127.651447,80.8573478 126.058372,80.2197503 124.844897,78.9510614 C103.002346,56.121167 67.4755302,56.121167 45.6329792,78.9510614 C43.1998062,81.4949453 39.2669024,81.4949453 36.8337293,78.9510614 C34.4005563,76.4071775 34.4005563,72.2953242 36.8337293,69.7514402 C63.5301805,41.8402841 106.960141,41.8467902 133.644147,69.7514402 C136.07732,72.2953242 136.07732,76.4071775 133.644147,78.9510614 C132.430672,80.2197503 130.837597,80.8573478 129.244522,80.8573478 Z" id="Shape"></path>
                    <path d="M59.5179766,99.1650425 C57.9200042,99.1650425 56.3220317,98.528352 55.1048262,97.261468 C52.664173,94.7212031 52.664173,90.6151995 55.1048262,88.0749346 C63.3630977,79.4861106 74.3304319,74.7564103 86.003121,74.7564103 C97.6758102,74.7564103 108.643144,79.4861106 116.895174,88.0749346 C119.335827,90.6151995 119.335827,94.7277 116.895174,97.261468 C114.454521,99.8017329 110.509526,99.8017329 108.068873,97.261468 C102.17635,91.12845 94.3362975,87.7500926 86.003121,87.7500926 C77.6699445,87.7500926 69.8298924,91.12845 63.931127,97.261468 C62.7139214,98.5348489 61.115949,99.1650425 59.5179766,99.1650425 Z" id="Shape"></path>
                    <path d="M94.4704091,117.998211 C92.9374118,117.998211 91.4044144,117.296753 90.2307133,115.900995 C87.9731352,113.188214 84.0268648,113.188214 81.7692867,115.900995 C79.4278728,118.699668 75.6372973,118.699668 73.2958834,115.900995 C70.9544695,113.109479 70.9544695,109.578634 73.2958834,106.77996 C80.0865826,98.6630903 91.9194057,98.6630903 98.7041166,106.77996 C101.04553,109.578634 101.04553,113.109479 98.7041166,115.900995 C97.5364038,117.296753 96.0034064,117.998211 94.4704091,117.998211 Z" id="Shape"></path>
                </g>
                <polygon id="Shape" stroke="#28BC00" stroke-width="0.7" fill="#28BC00" fill-rule="nonzero" points="20.3982699 64.5624064 17.2063048 45 13.7174759 62.1524709 10.3578628 50.1727331 8.33030817 57.9595978 0 57.9595978 0 58.4867822 8.7589535 58.4867822 10.3772635 52.2709269 13.8247287 64.5624064 17.1418799 48.3289936 20.2485552 67.3114972 22.7365984 58.4867822 31 58.4867822 31 57.9595978 22.307953 57.9595978"></polygon>
                <circle id="Oval" stroke="#28BC00" stroke-width="1.7" cx="15.5" cy="55.5" r="15.5"></circle>
                <path d="M165,0 C156.731429,0 150,6.8103125 150,15.1815625 C150,21.22875 153.502857,26.64 158.948571,29.068125 L164.074286,36.5085938 C164.285714,36.815 164.634286,37 165,37 C165,37 165,37 165.005714,37 C165.371429,37 165.72,36.815 165.931429,36.5085938 L171.051429,29.068125 C176.497143,26.64 180,21.22875 180,15.1815625 C180,6.8103125 173.274286,0 165,0 Z M165,27.6864062 C158.171748,27.6864062 152.64,22.0810882 152.64,15.1815625 C152.64,8.27329218 158.171748,2.67671875 165,2.67671875 C171.828252,2.67671875 177.36,8.27329218 177.36,15.1815625 C177.36,22.0810882 171.828252,27.6864062 165,27.6864062 Z" id="Shape" fill="#FFC000" fill-rule="nonzero"></path>
                <path d="M76.5,31 C85.0468436,31 92,24.0470552 92,15.4995282 C92,6.95294476 85.0468436,0 76.5,0 C67.9531564,0 61,6.95294476 61,15.4995282 C61,24.0461117 67.9531564,31 76.5,31 Z M76.5,29.1129204 C76.2518415,29.1129204 76.0093444,29.0883884 75.7640166,29.0751788 C76.6471967,26.2653173 78.4362026,23.8319282 80.8885372,22.1599757 C83.3852195,20.4597169 86.3659524,19.690732 89.3542339,19.938883 C87.5076703,25.2689393 82.4501431,29.1129204 76.5,29.1129204 Z M76.5,1.88707959 C76.7236257,1.88707959 76.9415901,1.90972455 77.1633287,1.92104702 C76.2820357,4.7346827 74.4930298,7.17278953 72.0369209,8.84568559 C69.55911,10.5308477 66.6076277,11.3026632 63.6410483,11.0724395 C65.4838376,5.73672196 70.5451391,1.88707959 76.5,1.88707959 Z M63.1390698,12.9246081 C63.6448225,12.9755593 64.1515188,13.0104702 64.6553844,13.0104702 C67.652158,13.0104702 70.5875997,12.1141074 73.0984355,10.4044133 C76.0084008,8.42203622 78.0955744,5.50178055 79.0617885,2.13711764 C85.3459548,3.34013088 90.1119194,8.87021762 90.1119194,15.4995282 C90.1119194,16.3873992 90.0203933,17.2535687 89.8571559,18.0942627 C86.3206611,17.7206209 82.7785049,18.5896211 79.826079,20.6012479 C76.9217751,22.5798509 74.8355451,25.4935018 73.8674438,28.8515599 C67.617246,27.621184 62.887137,22.1043068 62.887137,15.4985847 C62.887137,14.6182621 62.9786632,13.7596408 63.1390698,12.9246081 Z" id="Shape" fill="#E23965" fill-rule="nonzero"></path>
                <g id="noun_play_475309" transform="translate(210.000000, 40.000000)" fill="#FF564E" fill-rule="nonzero" stroke="#FF5448" stroke-width="0.5">
                    <path d="M15.5,0 C6.9533,0 0,6.9533 0,15.5 C0,24.0467 6.9533,31 15.5,31 C24.0467,31 31,24.0463556 31,15.5 C31,6.9533 24.0467,0 15.5,0 Z M15.5,29.6807778 C7.68076667,29.6807778 1.31922222,23.3192333 1.31922222,15.5 C1.31922222,7.68042222 7.68042222,1.31922222 15.5,1.31922222 C23.3192333,1.31922222 29.6807778,7.68042222 29.6807778,15.5 C29.6807778,23.3192333 23.3192333,29.6807778 15.5,29.6807778 Z" id="Shape"></path>
                    <path d="M22.8590556,14.5951444 L12.8353778,8.58114444 C12.6411111,8.46437778 12.4403,8.40547778 12.2391444,8.40547778 C11.6780444,8.40547778 11.2709111,8.85187778 11.2709111,9.46705556 L11.2709111,21.5332889 C11.2709111,22.1481222 11.6780444,22.5948667 12.2391444,22.5948667 C12.4406444,22.5948667 12.6414556,22.5349333 12.8353778,22.4185111 L22.8590556,16.4045111 C23.2103889,16.1937111 23.4125778,15.8640778 23.4118889,15.4996556 C23.4122333,15.1359222 23.2110778,14.8059444 22.8590556,14.5951444 Z M12.5904778,21.0273 L12.5904778,9.97235556 L21.8029889,15.5 L12.5904778,21.0273 Z" id="Shape"></path>
                </g>
            </g>
        </g>
    </g>
</svg>
